<?xml version="1.0" encoding="UTF-8"?>
<svg xmlns="http://www.w3.org/2000/svg" xmlns:xlink="http://www.w3.org/1999/xlink" width="177px" height="36px" viewBox="0 0 177 36" version="1.1">
<defs>
<linearGradient id="linear0" gradientUnits="userSpaceOnUse" x1="9.5" y1="3" x2="9.5" y2="31" gradientTransform="matrix(1.053571,0,0,1.058824,0,0)">
<stop offset="0" style="stop-color:rgb(66.666667%,0%,100%);stop-opacity:1;"/>
<stop offset="1" style="stop-color:rgb(83.921569%,67.843137%,100%);stop-opacity:1;"/>
</linearGradient>
<linearGradient id="linear1" gradientUnits="userSpaceOnUse" x1="9.5" y1="27" x2="9.5" y2="-1" gradientTransform="matrix(1.053571,0,0,1.058824,0,0)">
<stop offset="0" style="stop-color:rgb(66.666667%,0%,100%);stop-opacity:1;"/>
<stop offset="1" style="stop-color:rgb(83.921569%,67.843137%,100%);stop-opacity:1;"/>
</linearGradient>
</defs>
<g id="surface1">
<path style=" stroke:none;fill-rule:nonzero;fill:rgb(100%,100%,100%);fill-opacity:1;" d="M 28.144531 27.53125 L 23.804688 27.53125 L 30.417969 8.277344 L 35.636719 8.277344 L 42.242188 27.53125 L 37.902344 27.53125 L 33.101562 12.675781 L 32.953125 12.675781 Z M 27.875 19.960938 L 38.125 19.960938 L 38.125 23.140625 L 27.875 23.140625 Z M 48.597656 8.277344 L 48.597656 27.53125 L 44.546875 27.53125 L 44.546875 8.277344 Z M 55.390625 8.277344 L 60.019531 22.90625 L 60.195312 22.90625 L 64.835938 8.277344 L 69.324219 8.277344 L 62.722656 27.53125 L 57.503906 27.53125 L 50.890625 8.277344 Z M 88.15625 17.902344 C 88.15625 20.003906 87.757812 21.789062 86.964844 23.261719 C 86.179688 24.734375 85.109375 25.859375 83.75 26.636719 C 82.394531 27.40625 80.875 27.792969 79.183594 27.792969 C 77.480469 27.792969 75.953125 27.402344 74.601562 26.628906 C 73.25 25.851562 72.179688 24.726562 71.394531 23.253906 C 70.609375 21.78125 70.214844 19.996094 70.214844 17.902344 C 70.214844 15.804688 70.609375 14.019531 71.394531 12.546875 C 72.179688 11.074219 73.25 9.953125 74.601562 9.179688 C 75.953125 8.402344 77.480469 8.015625 79.183594 8.015625 C 80.875 8.015625 82.394531 8.402344 83.75 9.179688 C 85.109375 9.953125 86.179688 11.074219 86.964844 12.546875 C 87.757812 14.019531 88.15625 15.804688 88.15625 17.902344 Z M 84.046875 17.902344 C 84.046875 16.542969 83.847656 15.398438 83.441406 14.464844 C 83.042969 13.53125 82.476562 12.820312 81.746094 12.339844 C 81.019531 11.855469 80.164062 11.613281 79.183594 11.613281 C 78.207031 11.613281 77.351562 11.855469 76.621094 12.339844 C 75.890625 12.820312 75.324219 13.53125 74.917969 14.464844 C 74.519531 15.398438 74.320312 16.542969 74.320312 17.902344 C 74.320312 19.261719 74.519531 20.410156 74.917969 21.34375 C 75.324219 22.277344 75.890625 22.984375 76.621094 23.46875 C 77.351562 23.949219 78.207031 24.191406 79.183594 24.191406 C 80.164062 24.191406 81.019531 23.949219 81.746094 23.46875 C 82.476562 22.984375 83.042969 22.277344 83.441406 21.34375 C 83.847656 20.410156 84.046875 19.261719 84.046875 17.902344 Z M 108.054688 15.019531 L 103.960938 15.019531 C 103.886719 14.484375 103.730469 14.011719 103.5 13.597656 C 103.269531 13.179688 102.972656 12.820312 102.613281 12.527344 C 102.25 12.230469 101.832031 12.007812 101.359375 11.851562 C 100.890625 11.695312 100.382812 11.613281 99.835938 11.613281 C 98.84375 11.613281 97.980469 11.863281 97.242188 12.359375 C 96.507812 12.847656 95.9375 13.5625 95.53125 14.5 C 95.125 15.433594 94.925781 16.570312 94.925781 17.902344 C 94.925781 19.277344 95.125 20.429688 95.53125 21.363281 C 95.945312 22.296875 96.515625 23 97.253906 23.476562 C 97.988281 23.953125 98.839844 24.191406 99.804688 24.191406 C 100.347656 24.191406 100.851562 24.121094 101.3125 23.976562 C 101.78125 23.832031 102.195312 23.621094 102.554688 23.347656 C 102.917969 23.0625 103.21875 22.722656 103.453125 22.320312 C 103.699219 21.921875 103.867188 21.464844 103.960938 20.949219 L 108.054688 20.96875 C 107.949219 21.851562 107.683594 22.703125 107.261719 23.523438 C 106.84375 24.339844 106.277344 25.070312 105.566406 25.714844 C 104.863281 26.355469 104.023438 26.863281 103.042969 27.238281 C 102.070312 27.609375 100.96875 27.792969 99.742188 27.792969 C 98.03125 27.792969 96.503906 27.402344 95.15625 26.628906 C 93.816406 25.851562 92.757812 24.726562 91.976562 23.253906 C 91.203125 21.78125 90.816406 19.996094 90.816406 17.902344 C 90.816406 15.804688 91.210938 14.019531 91.996094 12.546875 C 92.78125 11.074219 93.847656 9.953125 95.195312 9.179688 C 96.542969 8.402344 98.058594 8.015625 99.742188 8.015625 C 100.851562 8.015625 101.878906 8.171875 102.828125 8.484375 C 103.78125 8.796875 104.625 9.253906 105.363281 9.855469 C 106.097656 10.453125 106.699219 11.183594 107.160156 12.046875 C 107.625 12.914062 107.925781 13.902344 108.054688 15.019531 Z M 128.5625 17.902344 C 128.5625 20.003906 128.167969 21.789062 127.375 23.261719 C 126.589844 24.734375 125.515625 25.859375 124.15625 26.636719 C 122.804688 27.40625 121.285156 27.792969 119.59375 27.792969 C 117.890625 27.792969 116.363281 27.402344 115.011719 26.628906 C 113.65625 25.851562 112.585938 24.726562 111.804688 23.253906 C 111.015625 21.78125 110.625 19.996094 110.625 17.902344 C 110.625 15.804688 111.015625 14.019531 111.804688 12.546875 C 112.585938 11.074219 113.65625 9.953125 115.011719 9.179688 C 116.363281 8.402344 117.890625 8.015625 119.59375 8.015625 C 121.285156 8.015625 122.804688 8.402344 124.15625 9.179688 C 125.515625 9.953125 126.589844 11.074219 127.375 12.546875 C 128.167969 14.019531 128.5625 15.804688 128.5625 17.902344 Z M 124.457031 17.902344 C 124.457031 16.542969 124.253906 15.398438 123.847656 14.464844 C 123.449219 13.53125 122.886719 12.820312 122.15625 12.339844 C 121.425781 11.855469 120.574219 11.613281 119.59375 11.613281 C 118.617188 11.613281 117.761719 11.855469 117.03125 12.339844 C 116.300781 12.820312 115.734375 13.53125 115.328125 14.464844 C 114.929688 15.398438 114.730469 16.542969 114.730469 17.902344 C 114.730469 19.261719 114.929688 20.410156 115.328125 21.34375 C 115.734375 22.277344 116.300781 22.984375 117.03125 23.46875 C 117.761719 23.949219 118.617188 24.191406 119.59375 24.191406 C 120.574219 24.191406 121.425781 23.949219 122.15625 23.46875 C 122.886719 22.984375 123.449219 22.277344 123.847656 21.34375 C 124.253906 20.410156 124.457031 19.261719 124.457031 17.902344 Z M 124.457031 17.902344 "/>
<path style=" stroke:none;fill-rule:nonzero;fill:rgb(100%,100%,100%);fill-opacity:1;" d="M 28.144531 27.53125 L 23.804688 27.53125 L 30.417969 8.277344 L 35.636719 8.277344 L 42.242188 27.53125 L 37.902344 27.53125 L 33.101562 12.675781 L 32.953125 12.675781 Z M 27.875 19.960938 L 38.125 19.960938 L 38.125 23.140625 L 27.875 23.140625 Z M 48.597656 8.277344 L 48.597656 27.53125 L 44.546875 27.53125 L 44.546875 8.277344 Z M 55.390625 8.277344 L 60.019531 22.90625 L 60.195312 22.90625 L 64.835938 8.277344 L 69.324219 8.277344 L 62.722656 27.53125 L 57.503906 27.53125 L 50.890625 8.277344 Z M 88.15625 17.902344 C 88.15625 20.003906 87.757812 21.789062 86.964844 23.261719 C 86.179688 24.734375 85.109375 25.859375 83.75 26.636719 C 82.394531 27.40625 80.875 27.792969 79.183594 27.792969 C 77.480469 27.792969 75.953125 27.402344 74.601562 26.628906 C 73.25 25.851562 72.179688 24.726562 71.394531 23.253906 C 70.609375 21.78125 70.214844 19.996094 70.214844 17.902344 C 70.214844 15.804688 70.609375 14.019531 71.394531 12.546875 C 72.179688 11.074219 73.25 9.953125 74.601562 9.179688 C 75.953125 8.402344 77.480469 8.015625 79.183594 8.015625 C 80.875 8.015625 82.394531 8.402344 83.75 9.179688 C 85.109375 9.953125 86.179688 11.074219 86.964844 12.546875 C 87.757812 14.019531 88.15625 15.804688 88.15625 17.902344 Z M 84.046875 17.902344 C 84.046875 16.542969 83.847656 15.398438 83.441406 14.464844 C 83.042969 13.53125 82.476562 12.820312 81.746094 12.339844 C 81.019531 11.855469 80.164062 11.613281 79.183594 11.613281 C 78.207031 11.613281 77.351562 11.855469 76.621094 12.339844 C 75.890625 12.820312 75.324219 13.53125 74.917969 14.464844 C 74.519531 15.398438 74.320312 16.542969 74.320312 17.902344 C 74.320312 19.261719 74.519531 20.410156 74.917969 21.34375 C 75.324219 22.277344 75.890625 22.984375 76.621094 23.46875 C 77.351562 23.949219 78.207031 24.191406 79.183594 24.191406 C 80.164062 24.191406 81.019531 23.949219 81.746094 23.46875 C 82.476562 22.984375 83.042969 22.277344 83.441406 21.34375 C 83.847656 20.410156 84.046875 19.261719 84.046875 17.902344 Z M 108.054688 15.019531 L 103.960938 15.019531 C 103.886719 14.484375 103.730469 14.011719 103.5 13.597656 C 103.269531 13.179688 102.972656 12.820312 102.613281 12.527344 C 102.25 12.230469 101.832031 12.007812 101.359375 11.851562 C 100.890625 11.695312 100.382812 11.613281 99.835938 11.613281 C 98.84375 11.613281 97.980469 11.863281 97.242188 12.359375 C 96.507812 12.847656 95.9375 13.5625 95.53125 14.5 C 95.125 15.433594 94.925781 16.570312 94.925781 17.902344 C 94.925781 19.277344 95.125 20.429688 95.53125 21.363281 C 95.945312 22.296875 96.515625 23 97.253906 23.476562 C 97.988281 23.953125 98.839844 24.191406 99.804688 24.191406 C 100.347656 24.191406 100.851562 24.121094 101.3125 23.976562 C 101.78125 23.832031 102.195312 23.621094 102.554688 23.347656 C 102.917969 23.0625 103.21875 22.722656 103.453125 22.320312 C 103.699219 21.921875 103.867188 21.464844 103.960938 20.949219 L 108.054688 20.96875 C 107.949219 21.851562 107.683594 22.703125 107.261719 23.523438 C 106.84375 24.339844 106.277344 25.070312 105.566406 25.714844 C 104.863281 26.355469 104.023438 26.863281 103.042969 27.238281 C 102.070312 27.609375 100.96875 27.792969 99.742188 27.792969 C 98.03125 27.792969 96.503906 27.402344 95.15625 26.628906 C 93.816406 25.851562 92.757812 24.726562 91.976562 23.253906 C 91.203125 21.78125 90.816406 19.996094 90.816406 17.902344 C 90.816406 15.804688 91.210938 14.019531 91.996094 12.546875 C 92.78125 11.074219 93.847656 9.953125 95.195312 9.179688 C 96.542969 8.402344 98.058594 8.015625 99.742188 8.015625 C 100.851562 8.015625 101.878906 8.171875 102.828125 8.484375 C 103.78125 8.796875 104.625 9.253906 105.363281 9.855469 C 106.097656 10.453125 106.699219 11.183594 107.160156 12.046875 C 107.625 12.914062 107.925781 13.902344 108.054688 15.019531 Z M 128.5625 17.902344 C 128.5625 20.003906 128.167969 21.789062 127.375 23.261719 C 126.589844 24.734375 125.515625 25.859375 124.15625 26.636719 C 122.804688 27.40625 121.285156 27.792969 119.59375 27.792969 C 117.890625 27.792969 116.363281 27.402344 115.011719 26.628906 C 113.65625 25.851562 112.585938 24.726562 111.804688 23.253906 C 111.015625 21.78125 110.625 19.996094 110.625 17.902344 C 110.625 15.804688 111.015625 14.019531 111.804688 12.546875 C 112.585938 11.074219 113.65625 9.953125 115.011719 9.179688 C 116.363281 8.402344 117.890625 8.015625 119.59375 8.015625 C 121.285156 8.015625 122.804688 8.402344 124.15625 9.179688 C 125.515625 9.953125 126.589844 11.074219 127.375 12.546875 C 128.167969 14.019531 128.5625 15.804688 128.5625 17.902344 Z M 124.457031 17.902344 C 124.457031 16.542969 124.253906 15.398438 123.847656 14.464844 C 123.449219 13.53125 122.886719 12.820312 122.15625 12.339844 C 121.425781 11.855469 120.574219 11.613281 119.59375 11.613281 C 118.617188 11.613281 117.761719 11.855469 117.03125 12.339844 C 116.300781 12.820312 115.734375 13.53125 115.328125 14.464844 C 114.929688 15.398438 114.730469 16.542969 114.730469 17.902344 C 114.730469 19.261719 114.929688 20.410156 115.328125 21.34375 C 115.734375 22.277344 116.300781 22.984375 117.03125 23.46875 C 117.761719 23.949219 118.617188 24.191406 119.59375 24.191406 C 120.574219 24.191406 121.425781 23.949219 122.15625 23.46875 C 122.886719 22.984375 123.449219 22.277344 123.847656 21.34375 C 124.253906 20.410156 124.457031 19.261719 124.457031 17.902344 Z M 138.023438 27.53125 L 136.789062 27.53125 L 143.703125 8.277344 L 145.050781 8.277344 L 151.960938 27.53125 L 150.726562 27.53125 L 144.421875 9.792969 L 144.328125 9.792969 Z M 139.773438 20.28125 L 148.976562 20.28125 L 148.976562 21.371094 L 139.773438 21.371094 Z M 155.535156 27.53125 L 155.535156 8.277344 L 161.4375 8.277344 C 162.652344 8.277344 163.695312 8.527344 164.558594 9.03125 C 165.433594 9.53125 166.105469 10.21875 166.570312 11.089844 C 167.039062 11.960938 167.273438 12.953125 167.273438 14.070312 C 167.273438 15.171875 167.039062 16.160156 166.570312 17.03125 C 166.105469 17.902344 165.433594 18.589844 164.558594 19.097656 C 163.695312 19.597656 162.65625 19.847656 161.445312 19.847656 L 156.355469 19.847656 L 156.355469 18.757812 L 161.417969 18.757812 C 162.402344 18.757812 163.246094 18.558594 163.941406 18.15625 C 164.640625 17.75 165.179688 17.195312 165.550781 16.492188 C 165.925781 15.785156 166.113281 14.976562 166.113281 14.070312 C 166.113281 13.152344 165.925781 12.34375 165.550781 11.632812 C 165.179688 10.925781 164.636719 10.371094 163.933594 9.96875 C 163.234375 9.570312 162.394531 9.367188 161.40625 9.367188 L 156.703125 9.367188 L 156.703125 27.53125 Z M 172.933594 8.277344 L 172.933594 27.53125 L 171.765625 27.53125 L 171.765625 8.277344 Z M 172.933594 8.277344 "/>
<path style=" stroke:none;fill-rule:nonzero;fill:url(#linear0);" d="M 5.125 9.335938 L 9.753906 23.964844 L 9.933594 23.964844 L 14.574219 9.335938 L 19.0625 9.335938 L 12.457031 28.589844 L 7.238281 28.589844 L 0.625 9.335938 Z M 5.125 9.335938 "/>
<path style=" stroke:none;fill-rule:nonzero;fill:url(#linear1);" d="M 14.890625 22.429688 L 10.261719 7.800781 L 10.085938 7.800781 L 5.445312 22.429688 L 0.957031 22.429688 L 7.558594 3.175781 L 12.777344 3.175781 L 19.390625 22.429688 Z M 14.890625 22.429688 "/>
</g>
</svg>
